<svg id="Layer_1" data-name="Layer 1" xmlns="http://www.w3.org/2000/svg" viewBox="0 0 130 58.18"><defs><style>.cls-1{fill:none;}.cls-1,.cls-3{stroke:#fff;stroke-miterlimit:10;}.cls-2{fill:#fff;}.cls-3{fill:red;}</style></defs><title>logo_web_3</title><rect class="cls-1" x="0.5" y="14.68" width="129" height="43" rx="12" ry="12"/><path class="cls-2" d="M12.2,28.9h2.59V47.36H12.2Zm2,10.36L22.38,28.9h3.19L13.85,43.15Zm3.07-1.75,2.05-1.89,7,11.74H23.17Z" transform="translate(-2 -1.82)"/><path class="cls-2" d="M33.91,28.9h2.21l6.8,18.46H40.13L35,32.47,29.9,47.36H27.1Zm-3.67,12H40v2.46H30.24Z" transform="translate(-2 -1.82)"/><path class="cls-2" d="M45.71,28.89H48.3V47.36H45.71Zm1.13,8.2h6.3a2.49,2.49,0,0,0,1.31-.35,2.41,2.41,0,0,0,.88-1,3.81,3.81,0,0,0,0-3,2.31,2.31,0,0,0-2.19-1.37h-6.3V28.89H53a5.78,5.78,0,0,1,2.81.66,4.64,4.64,0,0,1,1.88,1.87,6.14,6.14,0,0,1,0,5.6,4.6,4.6,0,0,1-1.88,1.88,5.76,5.76,0,0,1-2.8.66h-6.2Zm5,1.89,2.58-.58,4.72,9H56.1Z" transform="translate(-2 -1.82)"/><path class="cls-2" d="M67.06,28.9h2.2l6.81,18.46H73.28L68.16,32.47,63,47.36H60.25Zm-3.67,12H73.1v2.46H63.39Z" transform="translate(-2 -1.82)"/><path class="cls-2" d="M80.55,46.71a5.78,5.78,0,0,1-2.28-2.39,7.58,7.58,0,0,1-.8-3.57V35.52a7.55,7.55,0,0,1,.8-3.57,5.78,5.78,0,0,1,2.28-2.39,7.25,7.25,0,0,1,6.81,0A5.69,5.69,0,0,1,89.63,32a7.55,7.55,0,0,1,.81,3.57v5.23a7.58,7.58,0,0,1-.81,3.57,5.69,5.69,0,0,1-2.27,2.39,7.32,7.32,0,0,1-6.81,0ZM86,44.49A3.51,3.51,0,0,0,87.31,43a4.77,4.77,0,0,0,.48-2.19V35.43a4.77,4.77,0,0,0-.48-2.19A3.51,3.51,0,0,0,86,31.78a4.24,4.24,0,0,0-4,0,3.39,3.39,0,0,0-1.34,1.46,4.77,4.77,0,0,0-.48,2.19v5.41A4.77,4.77,0,0,0,80.6,43a3.39,3.39,0,0,0,1.34,1.46,4.24,4.24,0,0,0,4,0Z" transform="translate(-2 -1.82)"/><path class="cls-2" d="M94.38,28.9H97V47.36H94.38Zm2,10.36,8.15-10.36h3.18L96,43.15Zm3.07-1.75,2-1.89,7,11.74h-3.18Z" transform="translate(-2 -1.82)"/><path class="cls-2" d="M111.31,28.9h2.59V47.36h-2.59Zm1.26,0h10.6v2.47h-10.6Zm0,8.07h9.2v2.46h-9.2Zm0,7.93h10.6v2.46h-10.6Z" transform="translate(-2 -1.82)"/><polygon class="cls-3" points="74.11 29.22 66.08 24.47 58.08 29.29 59.57 19.15 53.05 12.01 62 10.49 65.97 1.25 70.02 10.45 78.99 11.89 72.54 19.09 74.11 29.22"/></svg>